<?xml version="1.0" standalone="no"?>
<!DOCTYPE svg PUBLIC "-//W3C//DTD SVG 20010904//EN"
 "http://www.w3.org/TR/2001/REC-SVG-20010904/DTD/svg10.dtd">
<svg version="1.0" xmlns="http://www.w3.org/2000/svg"
 width="370.000000pt" height="330.000000pt" viewBox="0 0 370.000000 330.000000"
 preserveAspectRatio="xMidYMid meet">
<metadata>
Created by potrace 1.15, written by Peter Selinger 2001-2017
</metadata>
<g transform="translate(0.000000,330.000000) scale(0.100000,-0.100000)"
fill="#bababa" stroke="none">
<path d="M2846 2904 c2 -33 6 -125 8 -205 l5 -146 -67 -7 c-37 -3 -295 -6
-574 -6 l-508 0 0 -196 c0 -181 1 -195 18 -190 9 2 268 8 576 11 l559 7 -7
-88 c-8 -124 -10 -343 -3 -351 4 -3 10 3 14 13 4 10 93 104 198 209 106 104
236 242 289 305 54 63 101 116 107 116 5 1 11 2 14 3 2 0 -80 78 -183 173
-159 146 -238 218 -424 386 l-26 24 4 -58z"/>
<path d="M822 1619 c-178 -159 -320 -290 -317 -290 3 -1 9 -2 14 -3 4 0 64
-64 133 -141 113 -126 285 -299 426 -428 28 -27 52 -55 52 -63 0 -13 2 -13 16
1 13 12 14 19 5 28 -7 7 -11 74 -11 205 l0 194 568 -7 c312 -4 575 -9 585 -11
16 -5 17 9 17 190 l0 196 -524 0 c-287 0 -551 3 -585 6 l-61 7 0 186 c0 121 4
191 11 198 6 6 7 13 2 16 -4 2 -153 -125 -331 -284z"/>
</g>
</svg>
