<?xml version="1.0" standalone="no"?>
<!DOCTYPE svg PUBLIC "-//W3C//DTD SVG 20010904//EN"
 "http://www.w3.org/TR/2001/REC-SVG-20010904/DTD/svg10.dtd">
<svg version="1.0" xmlns="http://www.w3.org/2000/svg"
 width="310.000000pt" height="330.000000pt" viewBox="0 0 310.000000 330.000000"
 preserveAspectRatio="xMidYMid meet">
<metadata>
Created by potrace 1.15, written by Peter Selinger 2001-2017
</metadata>
<g transform="translate(0.000000,330.000000) scale(0.100000,-0.100000)"
fill="#bababa" stroke="none">
<path d="M986 2809 c-63 -18 -94 -74 -116 -209 -17 -110 -14 -135 20 -164 32
-26 87 -46 131 -46 42 0 104 52 134 114 23 48 26 62 20 111 -4 31 -19 80 -34
108 -38 75 -92 105 -155 86z"/>
<path d="M2166 2809 c-69 -20 -117 -99 -124 -205 -6 -88 18 -139 88 -187 51
-36 182 -9 210 42 25 47 3 239 -34 295 -31 48 -88 70 -140 55z"/>
<path d="M541 2513 c-19 -10 -44 -31 -55 -46 -21 -28 -21 -33 -20 -932 1 -875
1 -904 20 -936 40 -69 -31 -65 1125 -63 1158 2 1089 -3 1122 67 14 29 16 133
18 928 1 715 -1 900 -11 922 -20 42 -72 69 -145 75 -56 4 -72 1 -119 -22 -57
-28 -69 -46 -81 -121 -9 -52 -37 -89 -89 -120 -53 -31 -110 -32 -202 -4 -74
23 -119 60 -129 105 -21 96 -29 108 -80 134 -47 24 -60 25 -251 28 -301 6
-361 -14 -384 -123 -19 -91 -68 -132 -186 -155 -69 -14 -116 -5 -170 32 -39
27 -74 85 -74 122 0 76 -62 118 -180 124 -58 2 -83 -1 -109 -15z m1970 -534
c47 -16 68 -37 93 -89 21 -44 21 -55 18 -560 -2 -535 -4 -563 -46 -608 -54
-60 -2 -57 -940 -60 -747 -2 -866 -1 -912 13 -60 17 -98 55 -114 115 -7 24
-10 225 -10 550 0 476 1 514 18 553 22 49 38 65 89 83 51 18 1751 20 1804 3z"/>
<path d="M1365 1781 c-59 -24 -79 -102 -37 -144 18 -18 34 -22 82 -22 91 0
133 41 115 112 -10 43 -107 75 -160 54z"/>
<path d="M1758 1762 c-53 -48 -38 -111 36 -149 64 -33 136 13 136 89 0 84
-104 120 -172 60z"/>
<path d="M2173 1780 c-28 -11 -45 -44 -45 -87 0 -41 23 -70 67 -82 73 -20 135
21 135 88 0 70 -80 112 -157 81z"/>
<path d="M938 1395 c-84 -47 -55 -161 44 -172 42 -5 50 -3 78 25 60 61 30 148
-57 158 -23 3 -49 -2 -65 -11z"/>
<path d="M1772 1390 c-44 -27 -56 -61 -38 -105 28 -66 122 -87 168 -37 32 34
39 65 26 103 -19 56 -96 75 -156 39z"/>
<path d="M2163 1391 c-52 -33 -54 -101 -3 -146 34 -31 112 -28 146 6 36 37 37
90 2 125 -35 36 -101 42 -145 15z"/>
<path d="M1339 1387 c-74 -57 -29 -157 70 -157 110 0 162 93 82 147 -38 26
-124 31 -152 10z"/>
<path d="M928 1034 c-57 -30 -66 -97 -18 -137 56 -47 140 -43 174 8 58 88 -57
183 -156 129z"/>
<path d="M1348 1034 c-89 -48 -48 -164 58 -164 54 0 116 30 131 63 16 35 -13
79 -66 100 -51 21 -87 21 -123 1z"/>
<path d="M1769 1027 c-72 -48 -61 -116 24 -151 44 -19 49 -19 82 -3 41 19 68
66 59 102 -9 37 -59 75 -98 75 -18 0 -48 -10 -67 -23z"/>
<path d="M2149 1021 c-53 -54 -33 -131 39 -151 49 -13 105 3 132 37 29 38 25
70 -14 109 -29 29 -41 34 -81 34 -38 0 -52 -5 -76 -29z"/>
</g>
</svg>
