<?xml version="1.0" standalone="no"?>
<!DOCTYPE svg PUBLIC "-//W3C//DTD SVG 20010904//EN"
 "http://www.w3.org/TR/2001/REC-SVG-20010904/DTD/svg10.dtd">
<svg version="1.0" xmlns="http://www.w3.org/2000/svg"
 width="360.000000pt" height="330.000000pt" viewBox="0 0 360.000000 330.000000"
 preserveAspectRatio="xMidYMid meet">
<metadata>
Created by potrace 1.15, written by Peter Selinger 2001-2017
</metadata>
<g transform="translate(0.000000,330.000000) scale(0.100000,-0.100000)"
fill="#000000" stroke="none">
<path d="M1744 2860 c-75 -11 -118 -27 -227 -82 -161 -83 -256 -194 -334 -395
-23 -59 -27 -83 -27 -183 -1 -95 3 -127 22 -185 36 -107 84 -204 136 -271 82
-110 71 -150 -65 -226 -156 -86 -271 -193 -401 -375 -116 -161 -226 -506 -186
-583 20 -37 58 -52 97 -39 41 15 56 45 81 170 26 130 109 307 199 426 119 157
348 301 564 353 305 75 598 3 885 -217 140 -107 278 -333 322 -530 33 -146 47
-181 81 -198 49 -26 98 -1 112 55 10 37 -21 206 -50 275 -13 33 -38 94 -55
135 -45 114 -210 325 -334 428 -28 23 -91 64 -140 90 -91 50 -134 93 -134 137
0 11 21 50 46 86 97 136 163 300 171 424 7 102 -6 160 -64 299 -42 99 -55 119
-124 191 -83 86 -190 152 -314 193 -70 24 -189 34 -261 22z m256 -199 c109
-42 243 -170 301 -287 32 -66 40 -251 14 -340 -31 -110 -115 -211 -235 -284
-92 -55 -148 -72 -250 -72 -104 0 -159 17 -253 76 -95 58 -170 139 -210 223
-31 66 -32 72 -32 203 0 134 0 136 34 205 25 51 56 92 115 150 121 121 212
157 371 151 60 -2 108 -11 145 -25z"/>
</g>
</svg>
