<?xml version="1.0" standalone="no"?>
<!DOCTYPE svg PUBLIC "-//W3C//DTD SVG 20010904//EN"
 "http://www.w3.org/TR/2001/REC-SVG-20010904/DTD/svg10.dtd">
<svg version="1.0" xmlns="http://www.w3.org/2000/svg"
 width="295.000000pt" height="298.000000pt" viewBox="0 0 295.000000 298.000000"
 preserveAspectRatio="xMidYMid meet">
<metadata>
Created by potrace 1.15, written by Peter Selinger 2001-2017
</metadata>
<g transform="translate(0.000000,298.000000) scale(0.100000,-0.100000)"
fill="#000000" stroke="none">
<path d="M1216 2935 c-59 -8 -131 -21 -159 -30 -175 -57 -433 -201 -553 -307
-98 -88 -209 -210 -240 -266 -15 -26 -44 -76 -65 -112 -21 -36 -47 -90 -58
-120 -10 -30 -33 -85 -50 -121 -47 -100 -61 -187 -67 -434 -7 -249 2 -356 41
-490 27 -95 104 -265 158 -350 115 -183 289 -358 473 -477 139 -90 349 -171
529 -204 138 -26 382 -26 520 0 310 58 587 206 801 427 196 205 316 419 380
683 22 94 24 120 24 356 0 236 -2 262 -24 356 -92 376 -338 713 -671 917 -66
41 -271 129 -350 152 -123 35 -479 45 -689 20z m386 -951 l44 -6 12 -57 c7
-32 12 -124 12 -207 0 -163 9 -214 45 -250 24 -24 26 -24 250 -24 l225 0 0
-104 0 -104 -212 -4 c-314 -5 -306 4 -307 -329 l-1 -206 -64 -7 c-36 -3 -82
-4 -103 0 -37 6 -40 8 -56 63 -13 43 -17 96 -17 214 0 254 -5 259 -255 269
-93 4 -191 10 -217 14 l-48 6 0 77 c0 85 6 118 23 124 7 2 106 0 222 -4 147
-5 214 -3 227 4 37 24 48 79 49 250 1 89 4 187 7 217 7 53 8 55 42 61 51 9 72
10 122 3z"/>
</g>
</svg>
