<?xml version="1.0" standalone="no"?>
<!DOCTYPE svg PUBLIC "-//W3C//DTD SVG 20010904//EN"
 "http://www.w3.org/TR/2001/REC-SVG-20010904/DTD/svg10.dtd">
<svg version="1.0" xmlns="http://www.w3.org/2000/svg"
 width="280.000000pt" height="330.000000pt" viewBox="0 0 280.000000 330.000000"
 preserveAspectRatio="xMidYMid meet">
<metadata>
Created by potrace 1.15, written by Peter Selinger 2001-2017
</metadata>
<g transform="translate(0.000000,330.000000) scale(0.100000,-0.100000)"
fill="#3e3e3e" stroke="none">
<path d="M1205 2849 c-120 -20 -243 -73 -339 -147 -94 -70 -298 -322 -324
-399 -19 -57 -35 -235 -29 -328 6 -104 59 -318 110 -446 41 -104 120 -243 243
-428 280 -422 413 -581 484 -581 56 0 162 112 310 326 47 68 116 167 154 221
38 54 94 143 124 198 30 55 63 112 74 127 67 95 145 348 178 576 12 85 -17
308 -49 369 -46 89 -231 312 -306 367 -96 72 -221 126 -340 146 -134 23 -151
23 -290 -1z m251 -414 c64 -19 125 -59 207 -138 62 -59 67 -67 96 -160 41
-130 41 -182 -3 -272 -48 -100 -83 -143 -167 -207 -115 -89 -207 -112 -320
-84 -126 32 -249 139 -317 275 -54 108 -56 156 -8 296 33 94 38 103 98 158 35
32 80 69 101 84 85 59 211 79 313 48z"/>
</g>
</svg>
